{"asset":{"version":"2.0","generator":"Blockbench 4.8.1 glTF exporter"},"scenes":[{"nodes":[8],"name":"blockbench_export"}],"scene":0,"nodes":[{"name":"sphere","mesh":0},{"name":"cylinder","mesh":1},{"name":"sphere","mesh":2},{"name":"cylinder","mesh":3},{"name":"cuboid","mesh":4},{"name":"pe","mesh":5},{"name":"bone"},{"name":"perna","mesh":6},{"children":[0,1,2,3,4,5,6,7]}],"bufferViews":[{"buffer":0,"byteOffset":0,"byteLength":588,"target":34962,"byteStride":12},{"buffer":0,"byteOffset":588,"byteLength":588,"target":34962,"byteStride":12},{"buffer":0,"byteOffset":1176,"byteLength":392,"target":34962,"byteStride":8},{"buffer":0,"byteOffset":1568,"byteLength":128,"target":34963},{"buffer":0,"byteOffset":1696,"byteLength":1260,"target":34962,"byteStride":12},{"buffer":0,"byteOffset":2956,"byteLength":1260,"target":34962,"byteStride":12},{"buffer":0,"byteOffset":4216,"byteLength":840,"target":34962,"byteStride":8},{"buffer":0,"byteOffset":5056,"byteLength":296,"target":34963},{"buffer":0,"byteOffset":5352,"byteLength":984,"target":34962,"byteStride":12},{"buffer":0,"byteOffset":6336,"byteLength":984,"target":34962,"byteStride":12},{"buffer":0,"byteOffset":7320,"byteLength":656,"target":34962,"byteStride":8},{"buffer":0,"byteOffset":7976,"byteLength":204,"target":34963},{"buffer":0,"byteOffset":8180,"byteLength":5628,"target":34962,"byteStride":12},{"buffer":0,"byteOffset":13808,"byteLength":5628,"target":34962,"byteStride":12},{"buffer":0,"byteOffset":19436,"byteLength":3752,"target":34962,"byteStride":8},{"buffer":0,"byteOffset":23188,"byteLength":1352,"target":34963},{"buffer":0,"byteOffset":24540,"byteLength":1344,"target":34962,"byteStride":12},{"buffer":0,"byteOffset":25884,"byteLength":1344,"target":34962,"byteStride":12},{"buffer":0,"byteOffset":27228,"byteLength":896,"target":34962,"byteStride":8},{"buffer":0,"byteOffset":28124,"byteLength":336,"target":34963},{"buffer":0,"byteOffset":28460,"byteLength":1824,"target":34962,"byteStride":12},{"buffer":0,"byteOffset":30284,"byteLength":1824,"target":34962,"byteStride":12},{"buffer":0,"byteOffset":32108,"byteLength":1216,"target":34962,"byteStride":8},{"buffer":0,"byteOffset":33324,"byteLength":384,"target":34963},{"buffer":0,"byteOffset":33708,"byteLength":1680,"target":34962,"byteStride":12},{"buffer":0,"byteOffset":35388,"byteLength":1680,"target":34962,"byteStride":12},{"buffer":0,"byteOffset":37068,"byteLength":1120,"target":34962,"byteStride":8},{"buffer":0,"byteOffset":38188,"byteLength":336,"target":34963}],"buffers":[{"byteLength":38524,"uri":"data:application/octet-stream;base64,"}],"accessors":[{"bufferView":0,"componentType":5126,"count":49,"max":[0.5512937307357788,4.9765625,0.6291375160217285],"min":[-0.5512937307357788,4.46875,-0.6662187576293945],"type":"VEC3"},{"bufferView":1,"componentType":5126,"count":49,"max":[0.9273069500923157,0.9526585340499878,0.8734897971153259],"min":[-0.9273069500923157,0.33053717017173767,-0.8023607134819031],"type":"VEC3"},{"bufferView":2,"componentType":5126,"count":49,"max":[0.515625,0.5078125],"min":[0.20633359253406525,0.21484375],"type":"VEC2"},{"bufferView":3,"componentType":5123,"count":63,"max":[48],"min":[0],"type":"SCALAR"},{"bufferView":4,"componentType":5126,"count":105,"max":[0.59375,4.46875,0.8337814211845398],"min":[-0.59375,3.809375047683716,-0.6662185788154602],"type":"VEC3"},{"bufferView":5,"componentType":5126,"count":105,"max":[0.9825311899185181,1,1],"min":[-0.9825311899185181,-0.4100606441497803,-0.8649115562438965],"type":"VEC3"},{"bufferView":6,"componentType":5126,"count":105,"max":[0.37890625,0.49397772550582886],"min":[0.0007003906066529453,0],"type":"VEC2"},{"bufferView":7,"componentType":5123,"count":147,"max":[104],"min":[0],"type":"SCALAR"},{"bufferView":8,"componentType":5126,"count":82,"max":[1.0625,3.1038453578948975,1.4953124523162842],"min":[-1.0625,1.584375023841858,-0.002262500114738941],"type":"VEC3"},{"bufferView":9,"componentType":5126,"count":82,"max":[0.9673298001289368,1,0.9331659078598022],"min":[-0.9673298001289368,-0.9686409831047058,-0.24392905831336975],"type":"VEC3"},{"bufferView":10,"componentType":5126,"count":82,"max":[0.48138946294784546,0.44921875],"min":[0.14213678240776062,0.0005193948745727539],"type":"VEC2"},{"bufferView":11,"componentType":5123,"count":102,"max":[81],"min":[0],"type":"SCALAR"},{"bufferView":12,"componentType":5126,"count":469,"max":[2.125,3.9666688442230225,1.115031361579895],"min":[-2.125,1.5,-0.8242114186286926],"type":"VEC3"},{"bufferView":13,"componentType":5126,"count":469,"max":[0.9995824098587036,1,0.992646336555481],"min":[-0.9995824098587036,-0.9915972948074341,-0.9926992058753967],"type":"VEC3"},{"bufferView":14,"componentType":5126,"count":469,"max":[0.55859375,0.51953125],"min":[0,0],"type":"VEC2"},{"bufferView":15,"componentType":5123,"count":675,"max":[468],"min":[0],"type":"SCALAR"},{"bufferView":16,"componentType":5126,"count":112,"max":[2.579439878463745,3.548956871032715,0.34332573413848877],"min":[-2.579439878463745,3.150545597076416,-0.22193562984466553],"type":"VEC3"},{"bufferView":17,"componentType":5126,"count":112,"max":[0.9732513427734375,0.9969173073768616,0.9763310551643372],"min":[-0.9732513427734375,-0.986018180847168,-0.9811191558837891],"type":"VEC3"},{"bufferView":18,"componentType":5126,"count":112,"max":[0.5234375,0.4456564784049988],"min":[0.046875,0.046875],"type":"VEC2"},{"bufferView":19,"componentType":5123,"count":168,"max":[111],"min":[0],"type":"SCALAR"},{"bufferView":20,"componentType":5126,"count":152,"max":[0.625,0.75,0.625],"min":[-0.625,0.4375,-0.0625],"type":"VEC3"},{"bufferView":21,"componentType":5126,"count":152,"max":[1,1,1],"min":[-1,-1,-1],"type":"VEC3"},{"bufferView":22,"componentType":5126,"count":152,"max":[0.5320625305175781,0.5234375],"min":[0.2421875,0.02734375],"type":"VEC2"},{"bufferView":23,"componentType":5123,"count":192,"max":[151],"min":[0],"type":"SCALAR"},{"bufferView":24,"componentType":5126,"count":140,"max":[0.6812937259674072,1.8023624420166016,0.30219534039497375],"min":[-0.6812937259674072,0.75,-0.07280465215444565],"type":"VEC3"},{"bufferView":25,"componentType":5126,"count":140,"max":[0.973369300365448,1,1],"min":[-0.973369300365448,-1,-0.9061692357063293],"type":"VEC3"},{"bufferView":26,"componentType":5126,"count":140,"max":[0.5142477750778198,0.56640625],"min":[0,0.00023317337036132812],"type":"VEC2"},{"bufferView":27,"componentType":5123,"count":168,"max":[139],"min":[0],"type":"SCALAR"}],"materials":[{"pbrMetallicRoughness":{"metallicFactor":0,"roughnessFactor":1,"baseColorTexture":{"index":0}},"alphaMode":"MASK","alphaCutoff":0.05,"doubleSided":true}],"textures":[{"sampler":0,"source":0,"name":"texture"}],"samplers":[{"magFilter":9728,"minFilter":9728,"wrapS":33071,"wrapT":33071}],"images":[{"mimeType":"image/png","uri":"data:image/png;base64,"}],"meshes":[{"primitives":[{"mode":4,"attributes":{"POSITION":0,"NORMAL":1,"TEXCOORD_0":2},"indices":3,"material":0}]},{"primitives":[{"mode":4,"attributes":{"POSITION":4,"NORMAL":5,"TEXCOORD_0":6},"indices":7,"material":0}]},{"primitives":[{"mode":4,"attributes":{"POSITION":8,"NORMAL":9,"TEXCOORD_0":10},"indices":11,"material":0}]},{"primitives":[{"mode":4,"attributes":{"POSITION":12,"NORMAL":13,"TEXCOORD_0":14},"indices":15,"material":0}]},{"primitives":[{"mode":4,"attributes":{"POSITION":16,"NORMAL":17,"TEXCOORD_0":18},"indices":19,"material":0}]},{"primitives":[{"mode":4,"attributes":{"POSITION":20,"NORMAL":21,"TEXCOORD_0":22},"indices":23,"material":0}]},{"primitives":[{"mode":4,"attributes":{"POSITION":24,"NORMAL":25,"TEXCOORD_0":26},"indices":27,"material":0}]}]}