{"asset":{"version":"2.0","generator":"Blockbench 4.8.1 glTF exporter"},"scenes":[{"nodes":[2],"name":"blockbench_export"}],"scene":0,"nodes":[{"name":"jorginputao","mesh":0},{"name":"bone"},{"children":[0,1]}],"bufferViews":[{"buffer":0,"byteOffset":0,"byteLength":13308,"target":34962,"byteStride":12},{"buffer":0,"byteOffset":13308,"byteLength":13308,"target":34962,"byteStride":12},{"buffer":0,"byteOffset":26616,"byteLength":8872,"target":34962,"byteStride":8},{"buffer":0,"byteOffset":35488,"byteLength":3032,"target":34963}],"buffers":[{"byteLength":38520,"uri":"data:application/octet-stream;base64,"}],"accessors":[{"bufferView":0,"componentType":5126,"count":1109,"max":[2.579439878463745,4.9765625,1.4953124523162842],"min":[-2.579439878463745,0.4375,-0.8242114186286926],"type":"VEC3"},{"bufferView":1,"componentType":5126,"count":1109,"max":[1,1,1],"min":[-1,-1,-1],"type":"VEC3"},{"bufferView":2,"componentType":5126,"count":1109,"max":[0.55859375,0.56640625],"min":[0,0],"type":"VEC2"},{"bufferView":3,"componentType":5123,"count":1515,"max":[1108],"min":[0],"type":"SCALAR"}],"materials":[{"pbrMetallicRoughness":{"metallicFactor":0,"roughnessFactor":1,"baseColorTexture":{"index":0}},"alphaMode":"MASK","alphaCutoff":0.05,"doubleSided":true}],"textures":[{"sampler":0,"source":0,"name":"texture"}],"samplers":[{"magFilter":9728,"minFilter":9728,"wrapS":33071,"wrapT":33071}],"images":[{"mimeType":"image/png","uri":"data:image/png;base64,"}],"meshes":[{"primitives":[{"mode":4,"attributes":{"POSITION":0,"NORMAL":1,"TEXCOORD_0":2},"indices":3,"material":0}]}]}